<svg width="54" height="19" viewBox="0 0 54 19" fill="none" xmlns="http://www.w3.org/2000/svg">
<path d="M11.4324 8.694C12.5617 9.01667 13.4491 9.55933 14.0944 10.322C14.7397 11.0847 15.0624 11.9647 15.0624 12.962C15.0624 13.886 14.6884 14.7587 13.9404 15.58C13.2071 16.3867 12.2831 17.032 11.1684 17.516C10.0684 18 9.01975 18.242 8.02241 18.242C7.28908 18.242 6.57041 18.2053 5.86641 18.132C4.69308 18.0587 3.78375 18.022 3.13841 18.022H0.344414V17.34L2.41241 15.712V2.336L0.124414 1.588L0.564414 0.708H3.11641C4.45108 0.708 5.76375 0.663999 7.05441 0.575999C8.05175 0.517332 8.78508 0.487999 9.25441 0.487999C10.2371 0.487999 11.1024 0.678665 11.8504 1.06C12.5984 1.44133 13.1704 1.962 13.5664 2.622C13.9771 3.26733 14.1824 3.99333 14.1824 4.8C14.1824 5.53333 13.9257 6.23733 13.4124 6.912C12.9137 7.572 12.2537 8.15133 11.4324 8.65V8.694ZM11.2124 5.9C11.2124 4.74133 10.9044 3.79533 10.2884 3.062C9.67241 2.32867 8.75575 1.962 7.53841 1.962C6.65841 1.962 5.86641 2.21133 5.16241 2.71V8.54H8.30841C9.21775 8.54 9.92908 8.31267 10.4424 7.858C10.9557 7.38867 11.2124 6.72867 11.2124 5.878V5.9ZM8.63841 16.636C9.69441 16.636 10.5304 16.372 11.1464 15.844C11.7771 15.316 12.0924 14.6047 12.0924 13.71C12.0924 12.566 11.7551 11.642 11.0804 10.938C10.4204 10.234 9.43041 9.86 8.11041 9.816C8.00775 9.83067 7.86841 9.838 7.69241 9.838H5.16241V16.064C6.14508 16.46 7.30375 16.658 8.63841 16.658V16.636ZM27.3838 0.267999C28.9385 0.267999 30.3098 0.641999 31.4978 1.39C32.7005 2.138 33.6318 3.172 34.2918 4.492C34.9518 5.812 35.2818 7.308 35.2818 8.98C35.2818 10.696 34.7831 12.28 33.7858 13.732C32.7885 15.184 31.5491 16.3353 30.0678 17.186C28.5865 18.022 27.1711 18.44 25.8218 18.44C24.2671 18.44 22.8885 18.0733 21.6858 17.34C20.4978 16.592 19.5738 15.558 18.9138 14.238C18.2538 12.918 17.9238 11.422 17.9238 9.75C17.9238 8.034 18.4225 6.45 19.4198 4.998C20.4171 3.53133 21.6565 2.38 23.1378 1.544C24.6191 0.693332 26.0345 0.267999 27.3838 0.267999ZM26.1078 2.116C25.1398 2.116 24.2525 2.402 23.4458 2.974C22.6538 3.53133 22.0305 4.316 21.5758 5.328C21.1211 6.32533 20.8938 7.44733 20.8938 8.694C20.8938 10.1313 21.1211 11.4513 21.5758 12.654C22.0305 13.842 22.7198 14.7953 23.6438 15.514C24.5825 16.2327 25.7338 16.592 27.0978 16.592C28.0658 16.592 28.9458 16.3133 29.7378 15.756C30.5445 15.184 31.1751 14.3993 31.6298 13.402C32.0845 12.39 32.3118 11.2607 32.3118 10.014C32.3118 8.562 32.0845 7.242 31.6298 6.054C31.1751 4.85133 30.4858 3.898 29.5618 3.194C28.6378 2.47533 27.4865 2.116 26.1078 2.116ZM53.5794 5.812L52.9194 6.032L49.9934 1.698H47.3094V16.328L49.6194 17.12L49.1794 18H42.4914V17.318L44.5594 15.69V1.698H41.9414L39.0154 6.032L38.3554 5.812V0.312L39.5434 0.708H52.3914L53.5794 0.312V5.812Z" fill="#91410D"/>
</svg>
