<svg width="169" height="165" viewBox="0 0 169 165" fill="none" xmlns="http://www.w3.org/2000/svg">
<rect width="169" height="165" rx="82.5" fill="#91410D"/>
<path fill-rule="evenodd" clip-rule="evenodd" d="M109.851 66C109.851 79.669 98.5012 90.75 84.5008 90.75C70.5004 90.75 59.1508 79.669 59.1508 66C59.1508 52.331 70.5004 41.25 84.5008 41.25C98.5012 41.25 109.851 52.331 109.851 66ZM101.401 66C101.401 75.1127 93.8344 82.5 84.5008 82.5C75.1672 82.5 67.6008 75.1127 67.6008 66C67.6008 56.8873 75.1672 49.5 84.5008 49.5C93.8344 49.5 101.401 56.8873 101.401 66Z" fill="#DBD6CC"/>
<path d="M84.5008 103.125C57.1465 103.125 33.84 118.917 24.9619 141.042C27.1247 143.139 29.403 145.122 31.7867 146.982C38.3977 126.669 59.1369 111.375 84.5008 111.375C109.865 111.375 130.604 126.669 137.215 146.982C139.599 145.122 141.877 143.139 144.04 141.042C135.162 118.917 111.855 103.125 84.5008 103.125Z" fill="#DBD6CC"/>
</svg>
