<svg width="157" height="22" viewBox="0 0 157 22" fill="none" xmlns="http://www.w3.org/2000/svg">
<path d="M20.6457 21H13.3497V20.256L15.6057 18.48V12.144H6.12569V19.176L8.64569 20.04L8.16569 21H0.869688V20.256L3.12569 18.48V3.936L0.629688 3.096L1.10969 2.136H8.40569V2.88L6.12569 4.656V11.064H15.6057V3.936L13.1097 3.096L13.5897 2.136H20.8857V2.88L18.6057 4.656V19.176L21.1257 20.04L20.6457 21ZM31.2321 8.016C32.2881 8.016 33.2321 8.296 34.0641 8.856C34.9121 9.4 35.5681 10.144 36.0321 11.088C36.5121 12.032 36.7521 13.072 36.7521 14.208C36.7521 15.44 36.3761 16.6 35.6241 17.688C34.8721 18.76 33.9281 19.624 32.7921 20.28C31.6721 20.92 30.5841 21.24 29.5281 21.24C28.4721 21.24 27.5201 20.968 26.6721 20.424C25.8401 19.864 25.1841 19.112 24.7041 18.168C24.2401 17.224 24.0081 16.184 24.0081 15.048C24.0081 13.816 24.3841 12.664 25.1361 11.592C25.8881 10.504 26.8241 9.64 27.9441 9C29.0801 8.344 30.1761 8.016 31.2321 8.016ZM29.8401 10.032C28.0321 10.032 27.1281 11.32 27.1281 13.896C27.1281 15.416 27.4561 16.688 28.1121 17.712C28.7681 18.72 29.7041 19.224 30.9201 19.224C32.7281 19.224 33.6321 17.928 33.6321 15.336C33.6321 13.832 33.3041 12.576 32.6481 11.568C31.9921 10.544 31.0561 10.032 29.8401 10.032ZM62.3097 21H57.7497V12.912C57.7497 12.032 57.6137 11.416 57.3417 11.064C57.0697 10.712 56.5817 10.536 55.8777 10.536C55.3817 10.536 54.8937 10.632 54.4137 10.824C53.9337 11 53.3657 11.36 52.7097 11.904V19.2L54.8697 20.04L54.3897 21H49.8297V12.912C49.8297 12.032 49.6937 11.416 49.4217 11.064C49.1497 10.712 48.6617 10.536 47.9577 10.536C47.4617 10.536 46.9737 10.632 46.4937 10.824C46.0137 11 45.4457 11.36 44.7897 11.904V19.2L46.9497 20.04L46.4697 21H39.7737V20.256L41.9097 18.576V11.784L39.7737 10.536V9.792L43.8777 7.776L44.6457 10.848L47.8377 8.184C48.1737 8.056 48.6137 7.992 49.1577 7.992C50.0857 7.992 50.8537 8.248 51.4617 8.76C52.0697 9.256 52.4537 9.944 52.6137 10.824L55.7337 8.208C56.0697 8.08 56.5097 8.016 57.0537 8.016C58.1417 8.016 59.0057 8.352 59.6457 9.024C60.2857 9.68 60.6057 10.576 60.6057 11.712V19.2L62.7897 20.04L62.3097 21ZM72.8712 21.048C72.2312 21.176 71.4632 21.24 70.5672 21.24C69.5112 21.24 68.5592 20.968 67.7112 20.424C66.8792 19.864 66.2232 19.112 65.7432 18.168C65.2792 17.224 65.0472 16.184 65.0472 15.048C65.0472 13.816 65.4232 12.664 66.1752 11.592C66.9272 10.504 67.8632 9.64 68.9832 9C70.1192 8.344 71.2152 8.016 72.2712 8.016C73.7912 8.016 74.9672 8.616 75.7992 9.816C76.6472 11.016 77.0712 12.6 77.0712 14.568H68.1912C68.2872 15.928 68.6552 17.04 69.2952 17.904C69.9512 18.768 70.8392 19.2 71.9592 19.2C72.9992 19.2 74.4792 18.392 76.3992 16.776L77.1192 17.688L72.8712 21.048ZM70.8792 10.032C69.1512 10.032 68.2472 11.216 68.1672 13.584H73.7832C73.6392 12.72 73.4872 12.064 73.3272 11.616C73.1832 11.152 72.9192 10.776 72.5352 10.488C72.1672 10.184 71.6152 10.032 70.8792 10.032ZM109.636 21.024H102.34V20.28L104.596 18.504V5.232L98.1882 21.024H96.8682L90.5082 5.064V18.792L93.0282 20.064L92.5482 21.024H86.9322V20.28L89.1882 18.504V4.44L86.6922 3.096L87.1722 2.136H92.3802L98.3802 17.208L104.356 2.136H109.876V2.88L107.596 4.656V19.176L110.116 20.064L109.636 21.024ZM125.144 21H120.584V18.912L117.872 21.048C117.552 21.176 117.152 21.24 116.672 21.24C115.296 21.24 114.296 20.896 113.672 20.208C113.064 19.52 112.76 18.696 112.76 17.736C112.76 17.16 112.968 16.592 113.384 16.032C113.8 15.472 114.392 14.944 115.16 14.448H120.584V12.912C120.584 11.872 120.304 11.136 119.744 10.704C119.2 10.272 118.448 10.056 117.488 10.056C116.496 10.056 115.28 10.656 113.84 11.856L113.12 10.944L116.576 8.208C117.216 8.08 117.984 8.016 118.88 8.016C120.336 8.016 121.464 8.376 122.264 9.096C123.064 9.8 123.464 10.832 123.464 12.192V19.2L125.624 20.04L125.144 21ZM117.44 19.2C118.416 19.2 119.464 18.752 120.584 17.856V15.432H116.336C116.128 15.688 115.976 15.944 115.88 16.2C115.8 16.456 115.76 16.736 115.76 17.04C115.76 17.632 115.912 18.144 116.216 18.576C116.52 18.992 116.928 19.2 117.44 19.2ZM142.043 21H137.483V19.272L135.251 21.048C134.739 21.176 134.123 21.24 133.403 21.24C132.347 21.24 131.395 20.968 130.547 20.424C129.715 19.864 129.059 19.112 128.579 18.168C128.115 17.224 127.883 16.184 127.883 15.048C127.883 13.816 128.259 12.664 129.011 11.592C129.763 10.504 130.699 9.64 131.819 9C132.955 8.344 134.051 8.016 135.107 8.016C135.987 8.016 136.787 8.264 137.507 8.76V3.816L135.371 2.328V1.584L139.475 0.0479994H140.387V19.2L142.523 20.04L142.043 21ZM134.627 19.2C135.107 19.2 135.563 19.136 135.995 19.008C136.443 18.864 136.939 18.6 137.483 18.216V12.744C137.387 11.944 137.011 11.296 136.355 10.8C135.715 10.288 134.835 10.032 133.715 10.032C131.907 10.032 131.003 11.32 131.003 13.896C131.003 15.4 131.315 16.664 131.939 17.688C132.563 18.696 133.459 19.2 134.627 19.2ZM152.652 21.048C152.012 21.176 151.244 21.24 150.348 21.24C149.292 21.24 148.34 20.968 147.492 20.424C146.66 19.864 146.004 19.112 145.524 18.168C145.06 17.224 144.828 16.184 144.828 15.048C144.828 13.816 145.204 12.664 145.956 11.592C146.708 10.504 147.644 9.64 148.764 9C149.9 8.344 150.996 8.016 152.052 8.016C153.572 8.016 154.748 8.616 155.58 9.816C156.428 11.016 156.852 12.6 156.852 14.568H147.972C148.068 15.928 148.436 17.04 149.076 17.904C149.732 18.768 150.62 19.2 151.74 19.2C152.78 19.2 154.26 18.392 156.18 16.776L156.9 17.688L152.652 21.048ZM150.66 10.032C148.932 10.032 148.028 11.216 147.948 13.584H153.564C153.42 12.72 153.268 12.064 153.108 11.616C152.964 11.152 152.7 10.776 152.316 10.488C151.948 10.184 151.396 10.032 150.66 10.032Z" fill="#7B411D"/>
</svg>
