<svg width="43" height="43" viewBox="0 0 43 43" fill="none" xmlns="http://www.w3.org/2000/svg">
<path d="M39.417 10.7497V15.0855C39.417 17.9163 37.6253 19.708 34.7945 19.708H28.667V7.18426C28.667 5.19551 30.2974 3.58301 32.2862 3.58301C34.2391 3.60092 36.0308 4.38926 37.3208 5.67926C38.6108 6.98717 39.417 8.77884 39.417 10.7497Z" stroke="#91410D" stroke-width="1.5" stroke-miterlimit="10" stroke-linecap="round" stroke-linejoin="round"/>
<path d="M3.58301 12.5413V37.6247C3.58301 39.1118 5.26713 39.9538 6.44963 39.058L9.51342 36.7647C10.2301 36.2272 11.2334 36.2988 11.8784 36.9438L14.8526 39.9359C15.5513 40.6347 16.698 40.6347 17.3968 39.9359L20.4068 36.9259C21.0339 36.2988 22.0372 36.2272 22.7359 36.7647L25.7997 39.058C26.9822 39.9359 28.6663 39.0938 28.6663 37.6247V7.16634C28.6663 5.19551 30.2788 3.58301 32.2497 3.58301H12.5413H10.7497C5.37467 3.58301 3.58301 6.79009 3.58301 10.7497V12.5413Z" stroke="#91410D" stroke-width="1.5" stroke-miterlimit="10" stroke-linecap="round" stroke-linejoin="round"/>
</svg>
