<svg width="43" height="43" viewBox="0 0 43 43" fill="none" xmlns="http://www.w3.org/2000/svg">
<path d="M21.4997 38.0726H12.5413C6.00176 38.0726 2.23926 34.3101 2.23926 27.7705V15.2288C2.23926 8.68926 6.00176 4.92676 12.5413 4.92676H30.458C36.9976 4.92676 40.7601 8.68926 40.7601 15.2288V20.6038C40.7601 21.3384 40.1509 21.9476 39.4163 21.9476C38.6818 21.9476 38.0726 21.3384 38.0726 20.6038V15.2288C38.0726 10.1047 35.5822 7.61426 30.458 7.61426H12.5413C7.41717 7.61426 4.92676 10.1047 4.92676 15.2288V27.7705C4.92676 32.8947 7.41717 35.3851 12.5413 35.3851H21.4997C22.2343 35.3851 22.8434 35.9943 22.8434 36.7288C22.8434 37.4634 22.2343 38.0726 21.4997 38.0726Z" fill="#9F611B"/>
<path d="M21.4993 23.0584C19.9943 23.0584 18.4714 22.5926 17.3068 21.643L11.6989 17.1638C11.1256 16.698 11.0181 15.8559 11.4839 15.2826C11.9497 14.7093 12.7918 14.6197 13.3651 15.0676L18.9731 19.5468C20.3347 20.6397 22.646 20.6397 24.0076 19.5468L29.6156 15.0676C30.1889 14.6018 31.031 14.6914 31.4968 15.2826C31.9626 15.8559 31.8731 16.7159 31.2818 17.1638L25.6739 21.643C24.5272 22.5926 23.0043 23.0584 21.4993 23.0584Z" fill="#9F611B"/>
<path d="M28.344 39.0224C27.6632 39.0224 27.0182 38.7716 26.5524 38.3057C25.997 37.7503 25.7461 36.944 25.8715 36.102L26.212 33.6832C26.3015 33.0561 26.6778 32.3036 27.1257 31.8557L33.4682 25.5132C34.3282 24.6532 35.1703 24.2053 36.0841 24.1157C37.1949 24.0082 38.3057 24.474 39.3449 25.5132C40.384 26.5524 40.8498 27.6453 40.7423 28.774C40.6528 29.6699 40.1869 30.5299 39.3449 31.3899L33.0024 37.7324C32.5545 38.1803 31.8019 38.5566 31.1749 38.6461L28.7561 38.9866C28.6128 39.0045 28.4874 39.0224 28.344 39.0224ZM36.3886 26.7853C36.3707 26.7853 36.3528 26.7853 36.3349 26.7853C36.084 26.8032 35.7436 27.0361 35.3673 27.4124L29.0249 33.7549C28.9711 33.8086 28.8815 33.9878 28.8815 34.0595L28.559 36.2991L30.7986 35.9765C30.8703 35.9586 31.0494 35.869 31.1032 35.8153L37.4457 29.4728C37.8219 29.0787 38.0549 28.7561 38.0728 28.5053C38.1086 28.147 37.7503 27.7169 37.4457 27.4124C37.159 27.1257 36.7469 26.7853 36.3886 26.7853Z" fill="#9F611B"/>
<path d="M37.4817 32.6979C37.3563 32.6979 37.2309 32.68 37.1234 32.6442C34.7584 31.9812 32.8772 30.1 32.2142 27.735C32.0172 27.0183 32.4292 26.2837 33.1459 26.0687C33.8626 25.8716 34.5972 26.2838 34.7942 27.0004C35.2063 28.4696 36.3709 29.6341 37.84 30.0462C38.5567 30.2433 38.9688 30.9959 38.7717 31.7125C38.6105 32.3038 38.073 32.6979 37.4817 32.6979Z" fill="#9F611B"/>
</svg>
