<svg width="37" height="39" viewBox="0 0 37 39" fill="none" xmlns="http://www.w3.org/2000/svg">
<g filter="url(#filter0_d_711_80)">
<path d="M29.8337 33.625V30.0417C29.8337 28.1409 29.0786 26.3181 27.7346 24.9741C26.3906 23.6301 24.5677 22.875 22.667 22.875H8.33366C6.43294 22.875 4.61007 23.6301 3.26606 24.9741C1.92205 26.3181 1.16699 28.1409 1.16699 30.0417V33.625M22.667 8.54167C22.667 12.4997 19.4584 15.7083 15.5003 15.7083C11.5423 15.7083 8.33366 12.4997 8.33366 8.54167C8.33366 4.58363 11.5423 1.375 15.5003 1.375C19.4584 1.375 22.667 4.58363 22.667 8.54167Z" stroke="#975102" stroke-width="2" stroke-linecap="round" stroke-linejoin="round" shape-rendering="crispEdges"/>
</g>
<defs>
<filter id="filter0_d_711_80" x="0.166992" y="0.375" width="38.667" height="42.25" filterUnits="userSpaceOnUse" color-interpolation-filters="sRGB">
<feFlood flood-opacity="0" result="BackgroundImageFix"/>
<feColorMatrix in="SourceAlpha" type="matrix" values="0 0 0 0 0 0 0 0 0 0 0 0 0 0 0 0 0 0 127 0" result="hardAlpha"/>
<feOffset dx="4" dy="4"/>
<feGaussianBlur stdDeviation="2"/>
<feComposite in2="hardAlpha" operator="out"/>
<feColorMatrix type="matrix" values="0 0 0 0 0 0 0 0 0 0 0 0 0 0 0 0 0 0 0.25 0"/>
<feBlend mode="normal" in2="BackgroundImageFix" result="effect1_dropShadow_711_80"/>
<feBlend mode="normal" in="SourceGraphic" in2="effect1_dropShadow_711_80" result="shape"/>
</filter>
</defs>
</svg>
