<svg width="41" height="45" viewBox="0 0 41 45" fill="none" xmlns="http://www.w3.org/2000/svg">
<path d="M10.5574 42.3052C10.3865 42.3052 10.1986 42.2869 10.0449 42.2687L6.33778 41.7201C4.56112 41.4641 2.95528 39.7634 2.68195 37.8251L2.16945 33.8204C1.99862 32.5403 2.51112 30.8762 3.36528 29.9436L10.8649 21.9159C9.65195 16.7226 11.0528 11.2367 14.6232 7.45139C20.1582 1.54488 29.1611 1.5266 34.7132 7.45139C37.3953 10.3223 38.8645 14.1442 38.8645 18.2038C38.8645 22.2634 37.3953 26.0852 34.7132 28.9562C31.1257 32.7597 26.0178 34.2592 21.2003 32.9426L13.6836 40.9703C12.9661 41.7749 11.6849 42.3052 10.5574 42.3052ZM24.6511 5.75075C21.6615 5.75075 18.689 6.95765 16.417 9.38974C13.3419 12.663 12.2315 17.454 13.5128 21.9159C13.6495 22.4097 13.5299 22.9217 13.1882 23.2874L5.15903 31.882C4.86862 32.1929 4.62945 32.9975 4.6807 33.4181L5.1932 37.4228C5.2957 38.1177 5.99612 38.904 6.64528 38.9954L10.3695 39.544C10.7795 39.6171 11.5311 39.3611 11.8215 39.0503L19.8849 30.4374C20.2265 30.0716 20.722 29.9619 21.1661 30.1082C25.2832 31.498 29.7761 30.3094 32.8511 27.0178C35.0378 24.6772 36.2507 21.5319 36.2507 18.2038C36.2507 14.8574 35.0378 11.7304 32.8511 9.38974C30.6303 6.97594 27.6407 5.75075 24.6511 5.75075Z" fill="#975102"/>
<path d="M15.7003 38.2646C15.3757 38.2646 15.0511 38.1366 14.7949 37.8623L10.8657 33.6564C10.3703 33.1261 10.3703 32.2483 10.8657 31.718C11.3611 31.1877 12.1811 31.1877 12.6765 31.718L16.6057 35.9239C17.1011 36.4542 17.1011 37.332 16.6057 37.8623C16.3495 38.1366 16.0249 38.2646 15.7003 38.2646Z" fill="#975102"/>
<path d="M24.7715 22.1908C22.6532 22.1908 20.9277 20.3439 20.9277 18.0764C20.9277 15.8088 22.6532 13.9619 24.7715 13.9619C26.8898 13.9619 28.6152 15.8088 28.6152 18.0764C28.6152 20.3439 26.8898 22.1908 24.7715 22.1908ZM24.7715 16.7049C24.0711 16.7049 23.4902 17.3266 23.4902 18.0764C23.4902 18.8261 24.0711 19.4478 24.7715 19.4478C25.4719 19.4478 26.0527 18.8261 26.0527 18.0764C26.0527 17.3266 25.4719 16.7049 24.7715 16.7049Z" fill="#975102"/>
</svg>
