<svg width="51" height="48" viewBox="0 0 51 48" fill="none" xmlns="http://www.w3.org/2000/svg">
<path d="M25.5 44C25.0042 44 24.5792 43.8667 24.225 43.6C23.8708 43.3333 23.6052 42.9833 23.4281 42.55C22.7552 40.6833 21.9052 38.9333 20.8781 37.3C19.8865 35.6667 18.4875 33.75 16.6813 31.55C14.875 29.35 13.4052 27.25 12.2719 25.25C11.174 23.25 10.625 20.8333 10.625 18C10.625 14.1 12.0594 10.8 14.9281 8.1C17.8323 5.36667 21.3563 4 25.5 4C29.6438 4 33.15 5.36667 36.0188 8.1C38.9229 10.8 40.375 14.1 40.375 18C40.375 21.0333 39.7552 23.5667 38.5156 25.6C37.3115 27.6 35.9125 29.5833 34.3188 31.55C32.4063 33.95 30.9542 35.95 29.9625 37.55C29.0063 39.1167 28.2094 40.7833 27.5719 42.55C27.3948 43.0167 27.1115 43.3833 26.7219 43.65C26.3677 43.8833 25.9604 44 25.5 44ZM25.5 36.85C26.1021 35.7167 26.775 34.6 27.5188 33.5C28.2979 32.4 29.4313 30.9333 30.9188 29.1C32.4417 27.2333 33.6812 25.5167 34.6375 23.95C35.6292 22.35 36.125 20.3667 36.125 18C36.125 15.2333 35.0802 12.8833 32.9906 10.95C30.9365 8.98333 28.4396 8 25.5 8C22.5604 8 20.0458 8.98333 17.9563 10.95C15.9021 12.8833 14.875 15.2333 14.875 18C14.875 20.3667 15.3531 22.35 16.3094 23.95C17.301 25.5167 18.5583 27.2333 20.0813 29.1C21.5688 30.9333 22.6844 32.4 23.4281 33.5C24.2073 34.6 24.8979 35.7167 25.5 36.85ZM25.5 23C26.9875 23 28.2448 22.5167 29.2719 21.55C30.299 20.5833 30.8125 19.4 30.8125 18C30.8125 16.6 30.299 15.4167 29.2719 14.45C28.2448 13.4833 26.9875 13 25.5 13C24.0125 13 22.7552 13.4833 21.7281 14.45C20.701 15.4167 20.1875 16.6 20.1875 18C20.1875 19.4 20.701 20.5833 21.7281 21.55C22.7552 22.5167 24.0125 23 25.5 23Z" fill="#975102"/>
</svg>
