<svg width="35" height="32" viewBox="0 0 35 32" fill="none" xmlns="http://www.w3.org/2000/svg">
<path d="M21.379 6.66634C22.8314 6.92043 24.1662 7.55735 25.2125 8.49559C26.2589 9.43383 26.9692 10.6307 27.2525 11.933M21.379 1.33301C24.3965 1.63359 27.2103 2.84524 29.3584 4.76902C31.5065 6.69279 32.8613 9.21435 33.2003 11.9197M31.7134 22.5597V26.5597C31.7151 26.931 31.6302 27.2986 31.4643 27.6388C31.2984 27.979 31.0551 28.2845 30.75 28.5355C30.4448 28.7865 30.0845 28.9777 29.6922 29.0966C29.2999 29.2156 28.8843 29.2598 28.4718 29.2263C23.8962 28.7805 19.501 27.3785 15.6394 25.133C12.0466 23.0859 9.00063 20.3546 6.71765 17.133C4.20466 13.6546 2.64078 9.69433 2.15269 5.57301C2.11554 5.2043 2.1644 4.83269 2.29619 4.48184C2.42797 4.13099 2.63978 3.80859 2.91813 3.53517C3.19648 3.26175 3.53527 3.04329 3.91294 2.8937C4.29061 2.74412 4.69887 2.66669 5.11174 2.66634H9.57261C10.2942 2.65997 10.9938 2.88911 11.541 3.31105C12.0881 3.73299 12.4455 4.31894 12.5465 4.95967C12.7348 6.23976 13.084 7.49664 13.5874 8.70634C13.7875 9.18357 13.8307 9.70223 13.7122 10.2008C13.5936 10.6995 13.318 11.1572 12.9183 11.5197L11.0298 13.213C13.1466 16.5511 16.2289 19.3149 19.9516 21.213L21.84 19.5197C22.2443 19.1612 22.7547 18.9141 23.3108 18.8078C23.8668 18.7015 24.4453 18.7403 24.9775 18.9197C26.3266 19.3711 27.7283 19.6842 29.1558 19.853C29.8781 19.9444 30.5378 20.2706 31.0094 20.7697C31.4809 21.2687 31.7315 21.9058 31.7134 22.5597Z" stroke="#975102" stroke-width="4" stroke-linecap="round" stroke-linejoin="round"/>
</svg>
