<svg width="48" height="43" viewBox="0 0 48 43" fill="none" xmlns="http://www.w3.org/2000/svg">
<g clip-path="url(#clip0_433_594)">
<path d="M31.6 30.5L25.3 24.2C24.8 24.6 24.225 24.9167 23.575 25.15C22.925 25.3833 22.2333 25.5 21.5 25.5C19.6833 25.5 18.1458 24.8708 16.8875 23.6125C15.6292 22.3542 15 20.8167 15 19C15 17.1833 15.6292 15.6458 16.8875 14.3875C18.1458 13.1292 19.6833 12.5 21.5 12.5C23.3167 12.5 24.8542 13.1292 26.1125 14.3875C27.3708 15.6458 28 17.1833 28 19C28 19.7333 27.8833 20.425 27.65 21.075C27.4167 21.725 27.1 22.3 26.7 22.8L33 29.1L31.6 30.5ZM21.5 23.5C22.75 23.5 23.8125 23.0625 24.6875 22.1875C25.5625 21.3125 26 20.25 26 19C26 17.75 25.5625 16.6875 24.6875 15.8125C23.8125 14.9375 22.75 14.5 21.5 14.5C20.25 14.5 19.1875 14.9375 18.3125 15.8125C17.4375 16.6875 17 17.75 17 19C17 20.25 17.4375 21.3125 18.3125 22.1875C19.1875 23.0625 20.25 23.5 21.5 23.5Z" fill="#FEF7FF"/>
</g>
<defs>
<clipPath id="clip0_433_594">
<rect x="4" y="1.5" width="40" height="40" rx="20" fill="white"/>
</clipPath>
</defs>
</svg>
