<svg width="43" height="43" viewBox="0 0 43 43" fill="none" xmlns="http://www.w3.org/2000/svg">
<rect width="43" height="43" fill="#DBD6CC"/>
<path d="M1.79199 1.79199H8.95866L13.7603 25.7824C13.9242 26.6073 14.3729 27.3483 15.028 27.8756C15.6831 28.403 16.5028 28.6831 17.3437 28.667H34.7587C35.5995 28.6831 36.4192 28.403 37.0743 27.8756C37.7294 27.3483 38.1781 26.6073 38.342 25.7824L41.2087 10.7503H10.7503M17.917 37.6253C17.917 38.6148 17.1148 39.417 16.1253 39.417C15.1358 39.417 14.3337 38.6148 14.3337 37.6253C14.3337 36.6358 15.1358 35.8337 16.1253 35.8337C17.1148 35.8337 17.917 36.6358 17.917 37.6253ZM37.6253 37.6253C37.6253 38.6148 36.8232 39.417 35.8337 39.417C34.8441 39.417 34.042 38.6148 34.042 37.6253C34.042 36.6358 34.8441 35.8337 35.8337 35.8337C36.8232 35.8337 37.6253 36.6358 37.6253 37.6253Z" stroke="#975102" stroke-width="2" stroke-linecap="round" stroke-linejoin="round"/>
</svg>
