<svg width="43" height="43" viewBox="0 0 43 43" fill="none" xmlns="http://www.w3.org/2000/svg">
<g clip-path="url(#clip0_204_427)">
<mask id="path-1-inside-1_204_427" fill="white">
<path d="M0 3C0 1.34314 1.34315 0 3 0H40C41.6569 0 43 1.34315 43 3V40C43 41.6569 41.6569 43 40 43H3C1.34314 43 0 41.6569 0 40V3Z"/>
</mask>
<path d="M0 3C0 1.34314 1.34315 0 3 0H40C41.6569 0 43 1.34315 43 3V40C43 41.6569 41.6569 43 40 43H3C1.34314 43 0 41.6569 0 40V3Z" fill="#DBD6CC"/>
<g filter="url(#filter0_d_204_427)">
<path d="M35.8337 37.625V34.0417C35.8337 32.1409 35.0786 30.3181 33.7346 28.9741C32.3906 27.6301 30.5677 26.875 28.667 26.875H14.3337C12.4329 26.875 10.6101 27.6301 9.26606 28.9741C7.92205 30.3181 7.16699 32.1409 7.16699 34.0417V37.625M28.667 12.5417C28.667 16.4997 25.4584 19.7083 21.5003 19.7083C17.5423 19.7083 14.3337 16.4997 14.3337 12.5417C14.3337 8.58363 17.5423 5.375 21.5003 5.375C25.4584 5.375 28.667 8.58363 28.667 12.5417Z" stroke="#975102" stroke-width="2" stroke-linecap="round" stroke-linejoin="round" shape-rendering="crispEdges"/>
</g>
</g>
<path d="M0 0H43H0ZM43 40C43 44.4183 39.4183 48 35 48H8C3.58172 48 0 44.4183 0 40V38C0 38 1.34315 38 3 38H40C41.6569 38 43 38 43 38V40ZM0 43V0V43ZM43 0V43V0Z" fill="#DBD6CC" mask="url(#path-1-inside-1_204_427)"/>
<defs>
<filter id="filter0_d_204_427" x="6.16699" y="4.375" width="38.667" height="42.25" filterUnits="userSpaceOnUse" color-interpolation-filters="sRGB">
<feFlood flood-opacity="0" result="BackgroundImageFix"/>
<feColorMatrix in="SourceAlpha" type="matrix" values="0 0 0 0 0 0 0 0 0 0 0 0 0 0 0 0 0 0 127 0" result="hardAlpha"/>
<feOffset dx="4" dy="4"/>
<feGaussianBlur stdDeviation="2"/>
<feComposite in2="hardAlpha" operator="out"/>
<feColorMatrix type="matrix" values="0 0 0 0 0 0 0 0 0 0 0 0 0 0 0 0 0 0 0.25 0"/>
<feBlend mode="normal" in2="BackgroundImageFix" result="effect1_dropShadow_204_427"/>
<feBlend mode="normal" in="SourceGraphic" in2="effect1_dropShadow_204_427" result="shape"/>
</filter>
<clipPath id="clip0_204_427">
<path d="M0 3C0 1.34314 1.34315 0 3 0H40C41.6569 0 43 1.34315 43 3V40C43 41.6569 41.6569 43 40 43H3C1.34314 43 0 41.6569 0 40V3Z" fill="white"/>
</clipPath>
</defs>
</svg>
